<?xml version="1.0" standalone="no"?>
<!DOCTYPE svg PUBLIC "-//W3C//DTD SVG 20010904//EN"
 "http://www.w3.org/TR/2001/REC-SVG-20010904/DTD/svg10.dtd">
<svg version="1.0" xmlns="http://www.w3.org/2000/svg"
 width="8334.000000pt" height="8334.000000pt" viewBox="0 0 8334.000000 8334.000000"
 preserveAspectRatio="xMidYMid meet">

<g transform="translate(0.000000,8334.000000) scale(0.100000,-0.100000)"
fill="#000000" stroke="none">
<path d="M68780 77963 c-328 -262 -1329 -1058 -1630 -1298 -201 -160 -444
-353 -540 -430 -274 -218 -1422 -1132 -1760 -1401 -439 -349 -847 -675 -1399
-1114 -266 -212 -608 -484 -760 -605 -534 -425 -910 -724 -1281 -1020 -206
-164 -557 -444 -780 -621 -441 -352 -989 -788 -1457 -1160 -373 -297 -775
-618 -1229 -979 -193 -154 -479 -382 -635 -506 -156 -124 -473 -376 -704 -560
-231 -184 -508 -405 -615 -490 -107 -85 -341 -272 -520 -414 -340 -270 -541
-431 -950 -756 -135 -108 -445 -355 -690 -550 -245 -195 -677 -539 -960 -764
-283 -225 -651 -518 -816 -650 -166 -132 -476 -379 -690 -550 -214 -170 -533
-424 -709 -564 -656 -522 -806 -642 -1070 -852 -148 -118 -279 -222 -290 -231
-11 -9 -99 -79 -195 -156 -96 -76 -457 -363 -801 -638 -600 -478 -1431 -1140
-1739 -1385 -80 -63 -336 -268 -570 -454 -234 -186 -515 -410 -625 -498 -110
-87 -249 -199 -310 -247 -60 -48 -191 -153 -290 -231 -99 -79 -187 -149 -195
-156 -8 -7 -130 -103 -270 -215 -141 -112 -262 -209 -270 -215 -8 -7 -30 -24
-48 -39 -17 -14 -29 -31 -25 -36 3 -7 1 -8 -5 -4 -7 4 -89 -54 -191 -135 -154
-122 -179 -145 -168 -158 10 -14 10 -14 -3 -4 -13 10 -47 -13 -205 -138 -188
-149 -225 -180 -195 -164 8 5 11 4 7 0 -4 -5 -15 -10 -23 -11 -9 -1 -23 -10
-32 -18 -10 -9 -32 -28 -50 -42 -26 -21 -30 -29 -20 -36 9 -7 7 -8 -7 -4 -15
4 -69 -34 -220 -155 -110 -88 -199 -165 -197 -171 1 -5 -3 -6 -9 -3 -6 4 -25
-6 -42 -22 -18 -16 -52 -45 -77 -64 -25 -18 -51 -39 -58 -46 -8 -7 -22 -18
-33 -24 -11 -5 -17 -14 -14 -20 4 -5 1 -8 -7 -7 -7 2 -12 -3 -10 -10 1 -8 -2
-11 -7 -8 -11 7 -87 -53 -83 -66 1 -5 -1 -7 -6 -4 -12 7 -157 -113 -156 -129
1 -7 -6 -10 -17 -8 -11 3 -21 -1 -25 -11 -3 -9 -11 -16 -18 -16 -6 0 -31 -19
-56 -42 -25 -22 -39 -37 -31 -33 10 6 12 4 7 -4 -4 -6 -12 -9 -17 -6 -5 3 -37
-17 -71 -46 -80 -65 -89 -75 -58 -59 22 12 24 12 12 -2 -10 -13 -9 -16 10 -21
26 -7 38 1 19 12 -9 6 -10 11 -2 15 6 4 14 0 18 -10 6 -17 -20 -45 -41 -43 -6
0 -4 3 4 6 10 4 3 10 -20 18 -33 11 -37 10 -72 -19 -20 -17 -57 -46 -82 -65
-28 -20 -43 -38 -39 -45 11 -16 14 -46 5 -47 -4 -1 -18 -3 -32 -4 -14 -1 -34
-6 -44 -10 -15 -7 -17 -5 -11 6 5 8 -4 3 -18 -10 -15 -14 -27 -25 -27 -26 0 0
10 -2 22 -2 18 -2 20 0 8 7 -13 8 -12 10 3 10 9 0 18 -3 18 -7 6 -34 5 -52 -3
-47 -4 3 -6 8 -4 12 2 4 -8 8 -22 9 -25 1 -26 0 -7 -13 22 -16 12 -19 -16 -3
-11 5 -16 15 -13 21 5 7 2 8 -5 4 -7 -5 -10 -10 -7 -13 7 -8 -17 -31 -29 -27
-5 2 -25 -10 -44 -26 -30 -25 -32 -30 -17 -36 14 -5 15 -9 4 -16 -9 -7 -7 -8
7 -3 11 4 28 7 38 7 9 0 15 3 12 9 -4 5 -2 9 2 9 19 0 33 -26 33 -62 0 -38 0
-38 40 -38 l40 0 0 -40 0 -40 40 0 40 0 0 -40 0 -40 40 0 40 0 0 -40 0 -40 80
0 80 0 0 -40 0 -40 40 0 40 0 0 -40 0 -40 40 0 40 0 0 -40 0 -40 40 0 40 0 0
-40 0 -40 40 0 40 0 0 -40 0 -40 40 0 40 0 0 -40 0 -40 80 0 80 0 0 -40 0 -40
40 0 40 0 0 -40 0 -40 40 0 40 0 0 -40 0 -40 40 0 40 0 0 -40 0 -40 40 0 40 0
0 -40 0 -40 40 0 40 0 0 -40 0 -40 80 0 80 0 0 -40 0 -40 40 0 40 0 0 -40 0
-40 40 0 40 0 0 -40 0 -40 40 0 40 0 0 -40 0 -40 40 0 40 0 0 -40 0 -40 40 0
40 0 0 -40 0 -40 80 0 80 0 0 -40 0 -40 40 0 40 0 0 -40 0 -40 40 0 40 0 0
-40 0 -40 40 0 40 0 0 -40 0 -40 40 0 40 0 0 -40 0 -40 40 0 40 0 0 -40 0 -40
80 0 80 0 0 -40 0 -40 40 0 40 0 0 -40 0 -40 40 0 40 0 0 -40 0 -40 40 0 40 0
0 -40 0 -40 40 0 40 0 0 -40 0 -40 40 0 40 0 0 -40 0 -40 80 0 80 0 0 -40 0
-40 40 0 40 0 0 -40 0 -40 40 0 40 0 0 -40 0 -40 40 0 40 0 0 -40 0 -40 40 0
40 0 0 -40 0 -40 40 0 40 0 0 -40 0 -40 80 0 80 0 0 -40 0 -40 40 0 c40 0 40
0 40 -39 0 -37 2 -40 33 -44 l32 -3 -32 -13 c-18 -7 -33 -20 -33 -28 0 -17 79
35 80 53 0 7 8 15 18 18 29 11 65 34 93 60 15 14 30 26 34 26 3 0 18 11 33 25
15 14 35 25 44 25 10 0 18 6 18 13 0 7 10 19 22 27 12 8 34 26 50 40 15 14 35
31 44 38 10 10 12 17 5 26 -7 9 -2 12 22 14 17 2 41 12 52 22 12 11 26 20 31
20 5 0 23 16 39 35 17 19 34 35 38 35 5 0 23 11 41 25 18 14 35 25 38 25 5 0
42 31 117 97 20 18 42 33 49 33 6 0 12 6 12 13 1 6 28 29 60 51 33 21 60 42
60 46 0 5 19 19 43 33 23 14 52 35 64 46 27 25 114 96 168 135 22 17 44 36 48
43 4 7 12 13 17 13 9 0 32 17 74 55 6 6 27 22 46 36 19 15 53 43 75 62 22 20
44 37 49 37 5 0 16 8 25 18 9 9 34 30 56 46 22 16 47 35 55 43 15 13 73 59
131 103 18 14 42 34 54 46 11 11 28 25 37 30 8 5 33 23 54 41 22 17 100 79
174 137 219 171 362 284 404 319 21 17 43 34 48 36 5 1 21 14 34 26 14 13 51
43 82 67 31 24 66 51 77 61 11 10 59 48 108 84 48 36 87 70 87 75 0 4 6 8 14
8 8 0 16 4 18 8 2 5 35 32 73 62 83 64 156 121 171 135 6 6 25 21 43 35 18 14
63 49 99 78 37 29 74 59 82 65 140 110 206 163 210 167 3 3 23 19 45 35 22 16
45 34 50 40 6 5 30 26 55 45 25 19 47 38 48 42 2 5 8 8 13 8 8 0 33 18 63 46
6 5 54 43 106 84 163 127 345 274 348 282 2 4 10 8 17 8 7 0 15 4 17 8 2 7
208 173 342 277 21 17 44 35 50 40 6 6 27 22 46 35 19 13 37 27 40 30 3 3 41
34 85 69 44 34 89 70 100 79 11 10 40 33 65 52 25 19 54 42 65 51 11 10 81 65
155 124 74 59 144 114 155 123 11 10 72 58 135 107 63 49 117 92 120 95 7 8
62 52 100 80 47 35 249 196 284 226 16 13 43 34 60 46 17 12 36 27 42 33 6 5
26 22 45 37 40 31 447 354 469 371 74 60 222 178 250 199 19 14 45 34 57 44
41 36 58 49 93 74 19 13 37 27 40 30 3 3 25 21 50 40 25 19 47 37 50 40 3 3
64 52 135 109 72 57 146 116 165 131 19 15 73 58 120 95 47 37 101 80 120 95
19 15 73 58 120 95 47 37 94 74 105 83 11 9 40 33 65 52 25 19 47 37 50 40 3
3 21 17 42 32 20 15 42 33 50 40 7 8 33 29 58 48 25 19 47 37 50 40 3 3 25 21
50 40 25 19 54 42 65 51 47 39 285 227 333 264 29 21 52 43 52 47 0 4 4 8 10
8 5 0 20 9 32 19 13 11 118 94 233 185 116 91 226 179 246 196 20 16 69 56
110 87 41 31 76 59 79 62 3 4 41 35 85 69 96 76 93 73 325 257 102 81 217 172
255 203 39 31 108 86 155 122 47 36 94 73 105 83 11 11 47 40 80 65 33 25 74
57 91 71 33 28 44 36 114 92 113 89 195 154 200 159 3 3 25 21 50 40 25 19 47
37 50 41 3 3 12 10 21 15 9 5 36 26 60 46 24 21 145 117 269 215 124 97 227
180 230 183 3 3 43 35 90 70 47 36 90 70 95 77 6 6 42 35 80 63 65 48 253 198
265 210 3 3 25 21 50 40 25 19 50 38 55 43 112 87 392 313 397 321 4 6 8 8 8
4 0 -4 12 4 28 18 38 36 63 49 56 29 -4 -8 -10 -15 -15 -15 -5 0 -25 -16 -45
-35 -19 -19 -38 -35 -41 -35 -3 0 -13 -8 -22 -18 -9 -9 -32 -29 -53 -44 -20
-15 -42 -34 -50 -41 -7 -7 -35 -30 -61 -50 -27 -20 -45 -37 -40 -37 4 -1 -2
-6 -13 -13 -20 -11 -68 -52 -202 -172 -25 -22 -54 -46 -66 -54 -12 -8 -25 -19
-31 -25 -5 -6 -46 -40 -90 -75 -44 -36 -87 -72 -95 -81 -8 -9 -40 -36 -70 -60
-30 -24 -73 -60 -96 -80 -51 -44 -96 -83 -164 -140 -53 -44 -90 -76 -206 -176
-32 -28 -86 -73 -119 -99 -33 -27 -73 -62 -90 -78 -16 -15 -61 -54 -100 -85
-38 -31 -79 -65 -90 -75 -11 -11 -42 -38 -70 -60 -27 -23 -62 -54 -78 -69 -16
-16 -32 -28 -35 -28 -4 0 -25 -17 -47 -37 -23 -21 -72 -64 -110 -95 -39 -31
-81 -67 -95 -80 -14 -13 -52 -45 -85 -73 -33 -27 -62 -52 -65 -55 -6 -6 -130
-111 -145 -123 -17 -13 -51 -41 -101 -84 -27 -23 -119 -101 -204 -174 -85 -72
-163 -140 -173 -150 -10 -11 -21 -19 -25 -19 -4 0 -25 -17 -48 -38 -22 -20
-60 -53 -84 -72 -24 -19 -48 -40 -54 -46 -13 -12 -127 -108 -251 -212 -49 -41
-110 -93 -135 -116 -25 -23 -70 -61 -100 -86 -30 -25 -57 -47 -60 -50 -3 -3
-30 -25 -60 -50 -30 -25 -64 -53 -75 -63 -11 -10 -48 -42 -82 -70 -35 -28 -63
-54 -63 -59 0 -4 -5 -8 -10 -8 -9 0 -35 -20 -84 -65 -6 -6 -40 -35 -76 -65
-36 -30 -67 -57 -70 -60 -3 -3 -30 -25 -60 -50 -30 -25 -61 -52 -70 -60 -9 -8
-38 -33 -65 -55 -27 -22 -59 -49 -70 -60 -12 -11 -46 -40 -76 -65 -29 -25 -56
-47 -59 -50 -3 -3 -30 -25 -60 -50 -30 -25 -62 -52 -70 -60 -8 -8 -31 -27 -52
-42 -20 -15 -42 -33 -50 -40 -7 -7 -47 -42 -88 -78 -41 -36 -76 -68 -78 -72
-2 -5 -10 -8 -18 -8 -8 0 -14 -4 -14 -9 0 -4 -32 -35 -71 -67 -39 -33 -77 -64
-83 -69 -6 -6 -49 -41 -96 -79 -47 -37 -105 -84 -130 -105 -25 -20 -74 -59
-110 -86 -36 -27 -67 -52 -70 -55 -3 -3 -32 -25 -65 -50 -33 -24 -73 -57 -90
-72 -16 -15 -34 -28 -39 -28 -5 0 -16 -8 -25 -18 -9 -10 -34 -32 -56 -48 -23
-16 -47 -34 -55 -41 -8 -7 -31 -26 -51 -43 -20 -16 -41 -30 -47 -30 -6 0 -22
-10 -35 -22 -13 -13 -54 -48 -91 -78 -38 -30 -74 -60 -80 -65 -6 -6 -33 -26
-61 -45 -27 -18 -52 -36 -55 -39 -3 -4 -21 -18 -42 -33 -20 -15 -42 -34 -50
-41 -7 -7 -29 -24 -48 -37 -19 -13 -44 -34 -55 -45 -11 -12 -36 -32 -55 -45
-19 -13 -42 -30 -50 -37 -53 -48 -87 -73 -97 -73 -7 0 -23 -10 -36 -22 -13
-13 -42 -39 -65 -58 -23 -19 -41 -41 -42 -47 0 -7 -9 -13 -21 -13 -12 0 -23
-8 -26 -18 -2 -10 -19 -24 -37 -32 -29 -13 -55 -32 -143 -105 l-25 -20 66 0
66 0 0 -42 0 -43 40 0 40 0 0 -40 0 -40 40 0 40 0 0 -40 0 -40 40 0 40 0 0
-40 0 -40 40 0 40 0 0 -40 0 -40 40 0 40 0 0 -40 0 -40 80 0 80 0 0 -40 0 -40
40 0 40 0 0 -40 0 -40 40 0 40 0 0 -40 0 -40 40 0 40 0 0 -40 0 -40 40 0 40 0
0 -40 0 -40 40 0 40 0 0 -40 0 -40 80 0 80 0 0 -40 0 -40 40 0 40 0 0 -40 0
-40 40 0 40 0 0 -40 0 -40 40 0 40 0 0 -40 0 -40 40 0 40 0 0 -40 0 -40 40 0
40 0 0 -40 0 -40 80 0 80 0 0 -40 0 -40 40 0 40 0 0 -40 0 -40 40 0 40 0 0
-40 0 -40 40 0 40 0 0 -40 0 -40 40 0 40 0 0 -40 0 -40 40 0 40 0 0 -40 0 -40
80 0 80 0 0 -40 0 -40 40 0 40 0 0 -40 0 -40 40 0 40 0 0 -40 0 -40 40 0 40 0
0 -40 0 -40 40 0 40 0 0 -40 0 -40 40 0 40 0 0 -40 0 -40 80 0 80 0 0 -40 0
-40 40 0 40 0 0 -40 0 -40 40 0 40 0 0 -40 0 -40 40 0 40 0 0 -40 0 -40 40 0
40 0 0 -40 0 -40 40 0 40 0 0 -40 0 -40 80 0 80 0 0 -40 0 -40 40 0 40 0 0
-40 0 -40 40 0 c22 0 40 -5 40 -10 0 -6 10 -24 22 -40 l21 -29 -24 -25 c-13
-14 -30 -26 -36 -26 -7 0 -13 -6 -13 -13 0 -15 -54 -67 -69 -67 -6 0 -11 -7
-11 -15 0 -8 -7 -15 -16 -15 -10 0 -14 -6 -11 -14 3 -8 -1 -20 -9 -26 -8 -7
-14 -18 -14 -25 0 -7 -11 -16 -25 -19 -14 -4 -25 -11 -25 -16 0 -6 -6 -10 -13
-10 -7 0 -13 -10 -14 -21 -3 -30 -8 -33 -58 -33 l-45 1 0 -37 c0 -27 -7 -43
-30 -65 -16 -16 -30 -35 -30 -42 0 -7 -6 -13 -13 -13 -16 0 -67 -52 -67 -68 0
-7 -6 -12 -13 -12 -16 0 -67 -52 -67 -68 0 -7 -6 -12 -14 -12 -8 0 -62 -47
-119 -105 -58 -58 -113 -105 -121 -105 -9 0 -16 -5 -16 -11 0 -14 -26 -40 -33
-32 -4 3 -5 -4 -2 -15 2 -14 -1 -19 -10 -16 -11 5 -84 -58 -180 -156 -25 -25
-33 -28 -44 -18 -11 11 -13 10 -9 -2 8 -22 -11 -52 -28 -46 -7 3 -13 2 -13 -2
3 -20 -2 -25 -12 -12 -9 13 -10 13 -6 0 4 -16 -31 -53 -44 -45 -4 3 -10 -4
-14 -15 -4 -11 -11 -18 -16 -15 -5 4 -9 -2 -9 -12 1 -16 3 -15 19 5 11 12 22
22 25 22 6 0 229 175 445 349 51 42 105 85 120 96 14 11 224 177 466 370 242
193 559 445 704 560 145 116 399 318 565 450 166 132 389 309 496 394 107 85
237 189 289 230 51 42 172 138 269 214 96 76 190 150 207 165 18 15 67 54 110
87 42 33 108 85 145 115 87 71 239 192 463 370 98 77 186 147 195 155 9 8 132
105 272 216 301 239 623 496 770 613 58 47 175 140 260 207 152 121 484 385
910 724 118 94 339 270 490 390 151 120 356 283 455 362 99 79 298 237 441
351 144 115 279 222 300 240 38 29 392 311 769 610 99 79 216 172 260 208 44
35 262 209 485 386 223 177 515 410 650 517 135 108 263 209 284 226 22 16 43
41 46 55 11 39 180 669 195 725 8 28 48 177 89 333 92 342 187 698 340 1267
63 237 154 574 201 750 48 176 113 419 145 540 32 121 157 589 278 1040 122
451 291 1083 377 1405 86 322 212 792 280 1045 68 253 176 656 240 895 64 239
132 491 150 560 80 299 263 983 385 1435 72 270 173 648 225 840 52 193 177
661 279 1040 101 380 293 1093 425 1585 132 492 300 1122 375 1400 74 278 167
624 206 770 39 146 123 458 186 694 63 235 114 432 112 437 -2 5 -41 -21 -88
-58z m-10290 -14847 c0 -2 -8 -10 -17 -17 -16 -13 -17 -12 -4 4 13 16 21 21
21 13z m-80 -70 c0 -2 -8 -10 -17 -17 -16 -13 -17 -12 -4 4 13 16 21 21 21 13z
m-40 -30 c0 -2 -8 -10 -17 -17 -16 -13 -17 -12 -4 4 13 16 21 21 21 13z m-40
-31 c0 -8 -55 -55 -65 -55 -5 0 6 14 25 30 37 31 40 33 40 25z m-15460 -5689
c0 -2 -8 -10 -17 -17 -16 -13 -17 -12 -4 4 13 16 21 21 21 13z m-184 -141 c-8
-8 -18 -15 -22 -15 -3 0 -1 7 6 15 7 8 17 15 22 15 5 0 3 -7 -6 -15z m8592
-110 c0 -29 -4 -29 -38 -10 l-25 14 25 10 c36 14 38 14 38 -14z m-8718 11 c0
-2 -8 -10 -17 -17 -16 -13 -17 -12 -4 4 13 16 21 21 21 13z m8636 -73 c-10
-10 -19 5 -10 18 6 11 8 11 12 0 2 -7 1 -15 -2 -18z m-8731 -2 c-3 -5 -1 -12
5 -16 6 -4 8 -11 4 -16 -4 -6 -10 -6 -18 0 -7 6 -17 7 -22 3 -5 -4 0 3 10 16
19 22 32 30 21 13z m-104 -85 c-17 -18 -19 -25 -9 -29 9 -4 9 -6 1 -6 -23 -2
-24 20 -1 39 32 27 36 25 9 -4z m-78 -86 c-7 -8 -52 -7 -47 1 2 4 15 6 28 5
13 0 22 -3 19 -6z m34 -9 c0 -11 -5 -18 -9 -15 -4 3 -5 11 -1 19 7 21 12 19
10 -4z m-120 -46 c-4 -8 -13 -15 -22 -15 -13 0 -12 3 3 18 19 21 27 20 19 -3z
m-120 -79 c0 -8 -5 -14 -11 -13 -6 1 -10 -6 -10 -15 1 -9 -4 -19 -12 -22 -16
-6 -8 21 14 47 18 21 19 21 19 3z m-86 -110 c-9 -11 -9 -15 1 -19 9 -4 9 -6 1
-6 -6 -1 -15 4 -18 9 -3 6 -11 10 -16 10 -6 0 -7 -6 -3 -12 5 -9 2 -8 -10 1
-11 9 -14 17 -7 24 7 7 15 6 25 -2 20 -17 32 4 15 27 -12 16 -12 16 6 0 15
-14 16 -20 6 -32z m-67 -27 c-3 -5 -10 -7 -15 -3 -5 3 -7 10 -3 15 3 5 10 7
15 3 5 -3 7 -10 3 -15z m-78 -76 c-3 -8 -6 -17 -6 -19 0 -2 -4 -4 -8 -4 -4 0
-8 11 -8 24 0 16 4 22 14 19 7 -3 11 -12 8 -20z m-42 -27 c-5 -14 -34 -31 -34
-20 0 8 24 33 32 34 4 0 5 -6 2 -14z m-52 -29 c-7 -8 -10 -16 -8 -18 2 -2 -7
-5 -20 -5 -13 -1 -21 2 -18 7 3 5 12 9 20 9 9 0 12 5 8 12 -4 7 -3 8 4 4 7 -4
12 -2 12 5 0 7 3 9 6 6 4 -4 2 -13 -4 -20z m68 -2 c-7 -9 -15 -13 -17 -11 -7
7 7 26 19 26 6 0 6 -6 -2 -15z m-40 -15 c0 -5 -5 -10 -11 -10 -5 0 -7 5 -4 10
3 6 8 10 11 10 2 0 4 -4 4 -10z m-262 -207 c2 -21 0 -34 -4 -30 -13 13 -13 67
0 67 1 0 3 -17 4 -37z m-47 7 c-13 -11 -19 -20 -14 -20 5 0 14 5 21 12 6 6 14
9 17 6 10 -9 -43 -38 -59 -32 -12 5 -10 11 12 30 15 13 32 23 37 23 6 0 -1 -9
-14 -19z m13636 -1976 c-3 -3 -12 -4 -19 -1 -8 3 -5 6 6 6 11 1 17 -2 13 -5z
m-193 -169 c-25 -19 -35 -19 -28 0 4 8 16 15 27 15 20 0 20 0 1 -15z m-24 -75
c-6 -11 -20 -20 -30 -20 -28 0 -20 24 10 31 14 4 26 7 28 8 1 0 -2 -8 -8 -19z
m-60 -49 c-1 -21 -39 -66 -48 -56 -4 4 -1 10 6 12 6 3 12 17 12 32 0 18 5 28
15 28 8 0 15 -7 15 -16z m-400 -437 c0 -3 -7 -12 -15 -20 -16 -17 -18 -14 -9
10 6 15 24 23 24 10z m-8437 -251 c-7 -2 -19 -2 -25 0 -7 3 -2 5 12 5 14 0 19
-2 13 -5z m-373 -303 c0 -5 -4 -10 -10 -10 -5 0 -10 5 -10 10 0 6 5 10 10 10
6 0 10 -4 10 -10z m-100 -80 c0 -11 -46 -21 -64 -14 -28 11 -17 19 24 20 22 1
40 -2 40 -6z"/>
<path d="M50993 56883 c-18 -2 -33 -9 -33 -14 0 -15 73 -6 78 9 2 6 0 11 -5
10 -4 0 -23 -3 -40 -5z"/>
<path d="M50910 56820 c0 -5 -6 -10 -14 -10 -8 0 -16 -7 -20 -15 -3 -8 -1 -15
4 -15 6 0 10 4 10 8 0 5 11 14 25 20 15 7 25 8 25 2 0 -6 5 -10 10 -10 6 0 10
7 10 15 0 9 -9 15 -25 15 -14 0 -25 -4 -25 -10z"/>
<path d="M50863 56752 c-8 -5 -9 -13 -3 -22 11 -17 23 -8 18 14 -2 9 -8 12
-15 8z"/>
<path d="M50776 56722 c-3 -6 1 -13 10 -16 25 -9 66 -7 59 4 -3 5 -12 7 -20 3
-9 -3 -22 0 -29 6 -9 7 -17 8 -20 3z"/>
<path d="M50692 56658 c-14 -14 -16 -28 -2 -28 5 0 14 9 20 20 12 22 1 27 -18
8z"/>
<path d="M50580 56549 c0 -5 9 -9 20 -9 11 0 20 2 20 4 0 2 -9 6 -20 9 -11 3
-20 1 -20 -4z"/>
<path d="M50542 56542 c-7 -5 -10 -16 -6 -25 9 -25 24 -20 24 8 0 28 0 28 -18
17z"/>
<path d="M50476 56468 c3 -4 17 -8 31 -8 15 0 23 3 20 7 -10 9 -56 10 -51 1z"/>
<path d="M41640 56341 c0 -7 -3 -10 -7 -8 -5 3 -13 -1 -20 -8 -9 -10 -6 -12
17 -11 37 2 44 10 25 26 -11 9 -15 9 -15 1z"/>
<path d="M41377 56129 c-20 -23 -16 -35 8 -26 8 4 15 16 15 27 0 25 -1 25 -23
-1z"/>
<path d="M41322 56097 c-15 -18 -1 -36 26 -34 27 2 29 14 2 22 -11 4 -18 11
-15 16 9 14 -1 11 -13 -4z m23 -25 c-3 -3 -11 0 -18 7 -9 10 -8 11 6 5 10 -3
15 -9 12 -12z"/>
<path d="M41402 56098 c-15 -15 -16 -38 -2 -38 6 0 10 7 10 15 0 8 7 15 15 15
8 0 15 5 15 10 0 14 -23 13 -38 -2z"/>
<path d="M41256 56034 c-3 -9 -11 -12 -18 -8 -7 4 -10 4 -6 -1 4 -4 0 -14 -10
-22 -16 -13 -15 -13 3 -4 15 7 25 5 40 -7 20 -17 20 -17 2 5 -17 20 -17 22 -1
31 10 5 12 12 6 16 -5 3 -13 -1 -16 -10z"/>
<path d="M41169 55973 c-13 -16 -12 -17 4 -4 9 7 17 15 17 17 0 8 -8 3 -21
-13z"/>
<path d="M41121 55936 c-6 -6 -6 -17 -2 -24 5 -9 15 -6 35 12 l28 24 -26 0
c-14 0 -30 -6 -35 -12z m24 -6 c-3 -5 -11 -10 -16 -10 -6 0 -7 5 -4 10 3 6 11
10 16 10 6 0 7 -4 4 -10z"/>
<path d="M41055 55878 c-11 -6 -26 -20 -33 -30 -7 -10 -17 -16 -22 -13 -5 3
-11 2 -14 -3 -14 -22 29 -5 60 25 38 36 39 38 9 21z"/>
<path d="M41070 55850 c0 -5 4 -10 9 -10 6 0 13 5 16 10 3 6 -1 10 -9 10 -9 0
-16 -4 -16 -10z"/>
<path d="M40929 55776 c0 -1 -2 -9 -4 -19 -3 -18 -3 -18 16 -1 10 9 19 18 19
19 0 2 -29 3 -31 1z"/>
<path d="M40856 55692 c-3 -5 1 -15 8 -21 11 -10 14 -9 12 3 -3 21 -13 29 -20
18z"/>
<path d="M40823 55675 c0 -8 4 -12 9 -9 5 3 6 10 3 15 -9 13 -12 11 -12 -6z"/>
<path d="M40785 55670 c-3 -6 1 -7 9 -4 18 7 21 14 7 14 -6 0 -13 -4 -16 -10z"/>
<path d="M40726 55622 c-2 -4 4 -8 14 -8 10 0 16 4 14 8 -3 4 -9 8 -14 8 -5 0
-11 -4 -14 -8z"/>
<path d="M40622 55521 c-11 -7 -11 -9 0 -14 9 -3 15 1 15 9 0 8 -1 14 -1 14
-1 0 -7 -4 -14 -9z"/>
<path d="M40537 55459 c7 -7 15 -10 18 -7 3 3 -2 9 -12 12 -14 6 -15 5 -6 -5z"/>
<path d="M40523 55437 c0 -8 6 -14 14 -14 9 0 10 4 2 14 -6 7 -12 13 -14 13
-1 0 -2 -6 -2 -13z"/>
<path d="M40445 55400 c-3 -6 1 -7 9 -4 18 7 21 14 7 14 -6 0 -13 -4 -16 -10z"/>
<path d="M40465 55381 c-3 -5 -2 -12 3 -15 5 -3 9 1 9 9 0 17 -3 19 -12 6z"/>
<path d="M40420 55371 c0 -6 4 -13 10 -16 6 -3 7 1 4 9 -7 18 -14 21 -14 7z"/>
<path d="M40391 55356 c-9 -11 -9 -16 1 -22 7 -4 10 -4 6 1 -4 4 -3 14 3 22 6
7 9 13 6 13 -2 0 -10 -6 -16 -14z"/>
<path d="M40316 55278 c3 -5 10 -6 15 -3 13 9 11 12 -6 12 -8 0 -12 -4 -9 -9z"/>
<path d="M54707 53823 c-9 -2 -15 -9 -12 -14 9 -14 22 -11 29 6 3 8 4 14 3 14
-1 -1 -10 -3 -20 -6z"/>
<path d="M54660 53790 c0 -5 5 -10 10 -10 6 0 10 5 10 10 0 6 -4 10 -10 10 -5
0 -10 -4 -10 -10z"/>
<path d="M54640 53756 c0 -9 5 -16 10 -16 6 0 10 4 10 9 0 6 -4 13 -10 16 -5
3 -10 -1 -10 -9z"/>
<path d="M45200 52685 c0 -8 5 -15 10 -15 6 0 10 7 10 15 0 8 -4 15 -10 15 -5
0 -10 -7 -10 -15z"/>
<path d="M45235 52660 c-22 -22 -47 -40 -57 -40 -10 0 -18 -4 -18 -10 0 -5 9
-10 20 -10 11 0 20 5 20 11 0 6 7 9 14 6 9 -4 17 2 21 14 4 10 13 20 21 20 26
3 29 4 59 26 19 14 24 22 15 23 -9 0 -22 -6 -28 -12 -10 -10 -14 -10 -20 0 -6
8 -20 0 -47 -28z"/>
<path d="M53436 52542 l-19 -27 24 22 c12 12 21 24 18 27 -2 2 -13 -8 -23 -22z"/>
<path d="M45125 52550 c-3 -5 -1 -10 4 -10 6 0 11 5 11 10 0 6 -2 10 -4 10 -3
0 -8 -4 -11 -10z"/>
<path d="M45060 52500 c0 -5 5 -10 10 -10 6 0 10 5 10 10 0 6 -4 10 -10 10 -5
0 -10 -4 -10 -10z"/>
<path d="M53374 52488 l-19 -23 23 19 c12 11 22 21 22 23 0 8 -8 2 -26 -19z"/>
<path d="M53270 52456 c0 -2 8 -10 18 -17 15 -13 16 -12 3 4 -13 16 -21 21
-21 13z"/>
<path d="M53254 52398 l-19 -23 23 19 c12 11 22 21 22 23 0 8 -8 2 -26 -19z"/>
<path d="M53160 52366 c0 -2 8 -10 18 -17 15 -13 16 -12 3 4 -13 16 -21 21
-21 13z"/>
<path d="M53196 52358 c3 -5 10 -6 15 -3 13 9 11 12 -6 12 -8 0 -12 -4 -9 -9z"/>
<path d="M44880 52350 c0 -5 5 -10 10 -10 6 0 10 5 10 10 0 6 -4 10 -10 10 -5
0 -10 -4 -10 -10z"/>
<path d="M53076 52276 c10 -8 21 -12 24 -10 5 6 -21 24 -34 24 -6 0 -1 -6 10
-14z"/>
<path d="M53045 52251 c-3 -5 -2 -12 3 -15 5 -3 9 1 9 9 0 17 -3 19 -12 6z"/>
<path d="M28970 46267 c-14 -12 -43 -35 -64 -52 -22 -16 -242 -192 -490 -389
-248 -197 -474 -377 -503 -400 -29 -23 -52 -44 -53 -48 0 -4 17 -34 38 -68 20
-33 42 -69 47 -79 6 -10 22 -36 37 -57 14 -22 60 -95 103 -164 42 -69 90 -143
105 -165 15 -22 38 -58 51 -80 13 -22 42 -69 64 -104 22 -35 64 -102 94 -150
30 -47 64 -102 76 -121 12 -19 36 -57 54 -85 85 -137 275 -438 314 -500 24
-38 116 -185 204 -325 276 -440 382 -609 517 -823 72 -114 147 -233 167 -265
161 -258 197 -315 234 -372 102 -158 115 -179 115 -185 0 -3 5 -11 10 -18 10
-11 86 -130 160 -251 31 -50 60 -97 182 -288 15 -24 47 -73 71 -110 99 -153
363 -572 544 -863 7 -11 43 -67 80 -125 68 -107 235 -371 513 -815 204 -327
554 -884 693 -1105 61 -96 138 -219 171 -272 106 -170 188 -301 240 -383 28
-44 57 -89 63 -100 42 -68 183 -290 218 -345 23 -36 72 -114 110 -175 37 -60
82 -132 100 -160 18 -27 54 -85 81 -128 83 -133 63 -130 184 -35 58 46 123 98
145 115 22 18 124 99 226 180 313 249 1109 883 1196 952 95 77 98 54 -21 209
-39 52 -84 112 -101 135 -28 40 -88 121 -489 662 -197 267 -497 673 -657 890
-65 88 -139 187 -164 220 -25 33 -96 129 -158 212 -146 198 -357 484 -585 791
-194 263 -307 415 -526 712 -75 102 -196 266 -270 365 -169 228 -412 556 -636
860 -96 130 -242 327 -325 439 -82 111 -188 253 -235 316 -109 149 -259 352
-380 515 -53 72 -145 197 -205 278 -61 82 -177 240 -260 351 -264 356 -507
684 -615 831 -58 78 -172 233 -255 344 -82 111 -157 213 -165 227 -18 29 -19
29 -50 1z"/>
<path d="M42790 36310 c0 -5 5 -10 11 -10 5 0 7 5 4 10 -3 6 -8 10 -11 10 -2
0 -4 -4 -4 -10z"/>
<path d="M42990 35996 c0 -9 7 -16 16 -16 17 0 14 22 -4 28 -7 2 -12 -3 -12
-12z"/>
<path d="M43037 35971 c3 -12 10 -21 15 -21 13 0 6 32 -9 37 -7 3 -9 -3 -6
-16z"/>
<path d="M43070 35920 c0 -11 7 -20 15 -20 17 0 18 2 9 24 -9 23 -24 20 -24
-4z"/>
<path d="M43120 35872 c0 -5 7 -15 15 -22 8 -7 13 -16 10 -20 -3 -4 2 -10 10
-14 21 -8 19 2 -10 36 -14 16 -25 25 -25 20z"/>
<path d="M43126 35767 l4 -27 -85 0 -85 0 0 -40 0 -40 -80 0 -80 0 0 -40 0
-40 -80 0 -80 0 0 -40 0 -40 -80 0 -80 0 0 -40 0 -40 -80 0 -80 0 0 -40 0 -40
-80 0 -80 0 0 -40 0 -40 -80 0 -80 0 0 -40 0 -40 -80 0 -80 0 0 -40 0 -40 -80
0 -80 0 0 -40 0 -40 -80 0 -80 0 0 -40 0 -40 -120 0 -120 0 0 -40 0 -40 -80 0
-80 0 0 -40 0 -40 -80 0 -80 0 0 -40 0 -40 -80 0 -80 0 0 -40 0 -40 -80 0 -80
0 0 -40 0 -40 -80 0 -80 0 0 -40 0 -40 -80 0 -80 0 0 -40 0 -40 -80 0 -80 0 0
-40 0 -40 -80 0 -80 0 0 -40 0 -40 -80 0 -80 0 0 -40 0 -40 -120 0 -120 0 0
-40 0 -40 -80 0 -80 0 0 -40 0 -40 -80 0 -80 0 0 -40 0 -40 -80 0 -80 0 0 -40
0 -40 -80 0 -80 0 0 -40 0 -40 -80 0 -80 0 0 -40 0 -40 -80 0 -80 0 0 -40 0
-40 -86 0 -86 0 7 -42 c6 -40 6 -42 -9 -23 -8 11 -15 16 -16 10 0 -5 29 -47
65 -92 36 -46 65 -86 65 -91 0 -5 10 -17 23 -28 12 -10 16 -12 10 -4 -14 16
-17 34 -5 26 5 -3 6 9 4 27 -3 18 -2 30 1 26 4 -3 7 -19 9 -37 1 -18 5 -32 8
-32 3 0 6 -9 6 -19 0 -11 -5 -17 -10 -13 -9 5 9 -21 49 -72 8 -11 18 -17 21
-13 4 4 -4 15 -17 26 -13 11 -22 21 -19 21 37 8 50 8 56 -2 5 -8 2 -9 -9 -5
-21 8 -22 -6 -2 -23 17 -14 21 -35 5 -25 -22 13 -9 -25 15 -43 13 -11 21 -23
17 -27 -4 -5 1 -5 12 -1 13 5 17 2 13 -9 -4 -8 8 -33 26 -57 18 -24 41 -56 51
-72 14 -22 20 -26 27 -15 6 10 9 8 9 -9 0 -29 31 -70 48 -64 6 2 12 8 12 13 0
6 -3 8 -8 5 -4 -2 -16 2 -27 10 -10 8 -14 14 -8 14 7 0 15 -5 18 -10 5 -8 11
-7 21 1 8 6 14 10 15 8 5 -24 4 -47 -3 -43 -4 3 -11 -2 -14 -10 -8 -21 13 -46
32 -39 8 3 14 0 14 -7 0 -7 7 -10 14 -7 10 4 13 1 9 -9 -5 -13 -8 -13 -24 2
-27 24 -23 10 9 -34 46 -65 83 -105 89 -99 3 3 -10 20 -28 37 -34 31 -34 31
-5 16 16 -8 35 -29 43 -47 15 -36 17 -51 3 -29 -5 8 -11 12 -14 9 -3 -2 8 -19
25 -37 16 -17 28 -33 27 -35 -6 -8 106 -146 114 -141 4 3 6 -1 3 -8 -3 -7 7
-26 22 -43 16 -16 28 -34 28 -40 1 -5 7 -9 14 -7 7 1 10 -2 6 -8 -3 -5 1 -13
9 -16 9 -3 13 -10 10 -15 -3 -5 0 -9 5 -9 6 0 11 -6 11 -14 0 -8 12 -24 28
-36 15 -12 21 -18 13 -14 -7 4 -3 -7 9 -24 13 -17 28 -28 33 -25 6 3 7 2 4 -4
-8 -13 67 -115 77 -105 4 4 6 2 4 -5 -3 -13 0 -18 105 -162 44 -58 86 -112 95
-118 9 -7 13 -13 9 -13 -4 0 14 -28 39 -62 26 -35 52 -62 58 -60 6 2 8 0 4 -4
-11 -10 32 -65 44 -58 7 4 8 2 4 -5 -8 -12 130 -208 144 -204 3 1 7 -4 7 -11
0 -21 115 -166 126 -159 6 3 7 1 3 -5 -7 -12 13 -41 163 -240 47 -63 91 -121
96 -130 30 -50 97 -132 104 -127 5 2 8 -2 7 -9 -1 -14 94 -145 484 -671 86
-115 198 -268 250 -339 121 -164 245 -332 385 -521 61 -82 160 -217 221 -299
173 -235 400 -542 481 -651 41 -55 118 -159 171 -231 196 -267 399 -541 477
-645 44 -59 139 -187 210 -285 160 -217 368 -499 486 -659 49 -66 131 -176
182 -245 50 -69 205 -278 342 -464 138 -186 311 -421 385 -521 176 -239 311
-421 466 -630 69 -93 186 -251 258 -350 73 -99 262 -355 421 -570 515 -697
996 -1346 1125 -1520 130 -176 149 -202 422 -572 90 -121 224 -304 299 -405
75 -100 257 -347 406 -548 148 -201 615 -833 1038 -1405 830 -1122 908 -1228
1775 -2401 316 -428 623 -844 683 -924 154 -209 337 -457 559 -757 297 -403
1109 -1500 1233 -1668 62 -82 433 -584 825 -1115 729 -987 859 -1163 1414
-1913 595 -805 1029 -1391 1147 -1552 66 -88 239 -322 385 -520 146 -198 314
-425 373 -505 59 -80 193 -260 296 -400 104 -140 232 -313 285 -385 53 -71
363 -492 690 -935 l595 -804 3 8694 2 8693 -57 78 c-63 85 -487 658 -646 872
-53 73 -139 188 -189 257 -51 69 -96 130 -100 135 -5 6 -50 66 -101 135 -51
69 -236 320 -412 558 -176 238 -349 473 -385 522 -131 179 -416 564 -445 600
-16 21 -68 91 -115 155 -47 65 -146 199 -220 299 -74 100 -178 240 -230 311
-52 71 -156 211 -230 311 -74 100 -171 231 -215 291 -71 97 -369 500 -465 628
-56 75 -660 892 -764 1033 -50 68 -147 199 -214 290 -160 216 -293 395 -412
557 -424 573 -825 1115 -880 1190 -37 50 -157 212 -267 360 -109 149 -251 340
-314 425 -63 85 -157 213 -209 283 -52 71 -182 247 -289 390 -107 144 -219
296 -249 337 -144 196 -177 238 -186 233 -5 -4 -6 -1 -2 5 3 5 -62 102 -145
214 -156 209 -251 337 -367 494 -166 224 -196 264 -198 264 -1 0 -8 -8 -15
-17 -13 -16 -12 -17 4 -4 10 8 17 9 17 3 0 -6 12 -24 26 -41 14 -17 23 -35 19
-41 -4 -6 -1 -9 7 -8 7 2 12 -5 12 -14 -1 -10 1 -17 5 -16 19 2 24 -4 11 -12
-13 -9 -13 -10 0 -10 20 -2 82 -88 74 -103 -4 -7 -4 -9 1 -5 6 6 95 -112 95
-127 0 -4 9 -18 20 -32 11 -15 18 -36 16 -52 -2 -20 2 -27 16 -28 16 -2 17 0
3 13 -22 23 -18 30 5 9 11 -10 17 -22 14 -27 -7 -11 42 -69 51 -60 5 4 5 1 1
-6 -8 -13 27 -72 66 -116 9 -10 20 -32 24 -48 3 -17 14 -38 25 -49 18 -18 70
-113 66 -120 -1 -2 0 -3 2 -2 5 3 57 -80 65 -105 4 -11 13 -25 21 -32 8 -6 11
-18 8 -26 -3 -7 2 -17 11 -20 9 -3 16 -12 16 -19 0 -8 6 -20 13 -27 7 -7 19
-28 26 -46 8 -18 19 -36 25 -40 14 -8 66 -126 66 -149 0 -9 6 -13 15 -9 11 4
15 -2 15 -25 0 -18 4 -28 10 -24 6 3 10 1 10 -4 0 -6 -4 -11 -10 -11 -5 0 -10
-4 -10 -10 0 -5 7 -10 15 -10 19 0 19 -30 -1 -58 -14 -21 -14 -22 5 -22 17 0
21 6 21 33 1 29 2 30 12 12 6 -11 14 -22 17 -25 12 -10 33 -76 32 -100 -1 -13
-6 -29 -12 -35 -8 -7 -10 -3 -7 15 l4 25 -83 -3 -83 -3 0 -40 0 -39 -80 0 -80
0 0 -40 0 -40 -80 0 -80 0 0 -40 0 -40 -80 0 -80 0 0 -40 0 -40 -120 0 -120 0
0 -40 0 -40 -80 0 -80 0 0 -40 0 -40 -80 0 -80 0 0 -40 0 -40 -80 0 -80 0 0
-40 0 -40 -80 0 -80 0 0 -40 0 -40 -80 0 -80 0 0 -40 0 -40 -80 0 -80 0 0 -40
0 -40 -80 0 -80 0 0 -40 0 -40 -80 0 -80 0 0 -40 0 -40 -80 0 -80 0 0 -40 0
-40 -80 0 -80 0 0 -40 0 -40 -120 0 -120 0 0 -40 0 -40 -80 0 -80 0 0 -40 0
-40 -80 0 -80 0 0 -40 0 -40 -80 0 -80 0 0 -40 0 -40 -80 0 -80 0 0 -40 0 -40
-80 0 -80 0 0 -40 0 -40 -80 0 -80 0 0 -40 0 -40 -80 0 -80 0 0 -40 0 -40 -80
0 -80 0 0 -40 0 -40 -80 0 -80 0 0 -40 0 -40 -79 0 -78 0 -7 -31 c-7 -37 -1
-49 24 -49 14 0 18 -5 13 -17 -6 -16 -5 -17 12 -3 17 14 18 13 12 -11 -5 -21
0 -34 24 -60 16 -19 51 -65 77 -104 64 -96 60 -92 73 -75 9 13 10 12 5 -2 -8
-27 4 -48 28 -49 11 0 15 -3 8 -6 -10 -4 -10 -8 -1 -19 10 -12 14 -12 21 -2 6
9 7 6 3 -8 -3 -14 3 -31 20 -50 46 -53 110 -139 123 -164 7 -14 31 -45 52 -70
22 -25 40 -48 40 -51 0 -4 12 -21 28 -37 15 -17 40 -49 56 -71 17 -23 33 -41
38 -41 4 0 8 -5 8 -11 0 -6 14 -28 30 -49 17 -21 30 -43 30 -49 0 -6 4 -11 8
-11 5 0 21 -18 38 -41 16 -22 34 -46 39 -52 6 -7 24 -30 40 -52 16 -22 36 -48
45 -57 31 -35 40 -47 40 -58 0 -5 4 -10 9 -10 5 0 13 -9 16 -20 4 -11 22 -37
41 -58 19 -20 34 -40 34 -43 0 -3 10 -17 23 -31 30 -34 80 -97 91 -117 5 -9
18 -25 28 -35 10 -11 18 -23 18 -27 0 -8 122 -169 146 -193 21 -22 104 -145
104 -155 0 -6 4 -11 8 -11 4 0 16 -13 25 -30 10 -16 23 -35 30 -42 7 -7 21
-29 31 -48 11 -19 30 -46 43 -60 13 -14 23 -28 23 -31 0 -4 36 -58 80 -121 44
-62 121 -174 172 -248 50 -74 95 -139 100 -145 5 -5 27 -37 50 -70 23 -33 68
-97 100 -143 32 -45 58 -87 58 -92 0 -6 3 -10 8 -10 4 0 18 -18 32 -40 14 -22
28 -40 32 -40 5 0 8 -4 8 -10 0 -11 62 -103 73 -108 4 -2 7 -9 7 -15 1 -7 14
-28 30 -47 17 -19 30 -40 30 -46 0 -7 4 -14 8 -16 8 -3 34 -39 164 -228 39
-58 75 -106 80 -108 4 -2 8 -9 8 -16 0 -7 8 -21 18 -32 18 -20 70 -95 155
-221 29 -43 55 -79 60 -81 4 -2 7 -10 7 -18 0 -8 3 -14 8 -14 4 0 18 -18 32
-40 13 -22 28 -40 32 -40 4 0 8 -5 8 -10 0 -12 201 -303 212 -308 4 -2 8 -10
8 -18 0 -8 5 -14 10 -14 6 0 10 -4 10 -10 0 -5 16 -31 35 -57 19 -27 39 -52
43 -58 4 -5 21 -30 37 -55 17 -25 35 -50 40 -57 13 -15 147 -209 160 -231 6
-10 27 -41 48 -69 20 -28 37 -56 37 -62 0 -6 4 -11 8 -11 4 0 16 -13 25 -30
10 -16 23 -35 30 -42 7 -7 32 -44 57 -82 24 -38 49 -74 55 -80 5 -6 37 -51 70
-101 32 -49 63 -91 67 -93 4 -2 8 -8 8 -14 0 -5 19 -35 43 -66 24 -31 62 -84
84 -117 22 -33 74 -109 116 -170 42 -60 106 -154 144 -208 37 -55 73 -104 78
-111 6 -6 32 -45 59 -86 28 -41 64 -93 80 -115 17 -21 36 -47 41 -57 11 -20
70 -105 174 -253 39 -55 116 -167 172 -249 55 -83 112 -165 126 -183 14 -17
22 -37 18 -43 -4 -6 -1 -9 6 -8 8 2 21 -12 30 -29 9 -18 19 -30 23 -26 3 3 6
0 6 -8 0 -8 12 -27 26 -44 14 -16 35 -45 47 -65 12 -19 29 -44 39 -54 10 -11
20 -28 24 -38 3 -10 10 -18 15 -18 5 0 9 -5 9 -11 0 -6 20 -37 45 -69 25 -32
45 -61 45 -64 0 -3 18 -29 40 -58 22 -29 40 -57 40 -63 0 -5 -30 33 -67 85
-38 51 -143 194 -235 317 -93 124 -168 226 -168 229 0 2 -8 12 -17 23 -10 10
-47 59 -83 107 -36 49 -73 98 -82 108 -10 11 -18 23 -18 28 0 7 -21 35 -47 63
-7 8 -13 17 -13 20 0 4 -12 22 -27 40 -16 18 -36 43 -45 56 -26 38 -237 322
-251 339 -7 8 -23 31 -37 50 -14 19 -30 42 -37 50 -7 8 -76 101 -153 205 -77
105 -150 201 -161 215 -11 14 -28 37 -37 53 -9 15 -20 27 -24 27 -4 0 -8 6 -8
14 0 8 -4 16 -8 18 -7 3 -53 63 -93 124 -8 13 -30 39 -47 59 -18 19 -32 37
-32 41 0 3 -11 20 -25 38 -32 40 -50 63 -78 102 -12 17 -31 43 -42 58 -41 55
-152 205 -235 315 -47 63 -95 128 -107 145 -12 17 -27 36 -32 42 -5 7 -52 70
-103 140 -150 206 -241 329 -247 334 -3 3 -22 28 -40 55 -19 28 -38 52 -41 55
-3 3 -61 82 -130 175 -69 94 -188 254 -265 358 -77 103 -158 212 -179 242 -22
30 -47 63 -56 72 -9 10 -31 41 -50 68 -18 28 -36 52 -40 55 -3 3 -37 48 -75
100 -38 52 -75 100 -82 106 -7 6 -13 15 -13 19 0 6 -93 135 -152 210 -40 52
-76 99 -216 290 -90 121 -173 234 -186 250 -13 17 -92 125 -177 240 -84 116
-156 212 -159 215 -3 3 -17 21 -30 40 -13 19 -27 37 -30 40 -3 3 -21 28 -40
55 -19 28 -40 57 -47 65 -7 8 -63 83 -123 165 -61 83 -116 157 -123 165 -7 8
-23 31 -37 50 -13 19 -27 37 -30 40 -3 3 -17 21 -30 40 -14 19 -30 42 -37 50
-6 8 -46 62 -89 120 -42 58 -81 107 -86 108 -4 2 -8 8 -8 13 0 4 -40 61 -88
126 -150 199 -491 658 -630 848 -73 99 -143 194 -156 210 -23 29 -160 215
-404 545 -67 91 -134 180 -149 199 -16 19 -30 38 -32 44 -4 10 -26 39 -48 62
-7 8 -13 18 -13 23 0 6 -3 12 -8 14 -4 2 -29 32 -55 68 -27 36 -54 72 -60 80
-7 8 -23 31 -37 50 -14 19 -30 42 -37 50 -6 8 -33 44 -60 80 -26 36 -51 67
-55 68 -5 2 -8 8 -8 13 0 5 -6 17 -14 26 -8 10 -45 59 -82 108 -98 132 -128
170 -136 173 -5 2 -8 8 -8 13 0 8 -59 92 -95 136 -16 19 -67 87 -169 228 -53
72 -108 146 -124 165 -16 19 -37 49 -48 65 -10 17 -31 44 -46 60 -15 17 -28
36 -28 43 0 6 -3 12 -7 12 -5 0 -19 17 -33 38 -14 20 -29 42 -35 48 -5 6 -30
39 -55 74 -25 34 -58 80 -75 100 -53 67 -79 103 -90 121 -5 9 -57 79 -114 156
-57 76 -126 167 -152 203 -27 36 -53 70 -57 75 -7 8 -141 189 -242 325 -10 14
-48 65 -84 113 -36 48 -66 92 -66 97 0 6 -4 10 -8 10 -5 0 -24 21 -43 48 -18
26 -39 54 -46 62 -7 8 -35 47 -63 85 -28 39 -57 78 -65 88 -8 9 -15 20 -15 23
0 3 -13 19 -30 37 -16 18 -30 38 -30 45 0 6 -3 12 -7 12 -5 0 -19 17 -33 37
-14 21 -35 49 -47 63 -12 14 -38 50 -59 80 -21 30 -50 69 -66 85 -15 17 -28
33 -28 38 0 4 -13 21 -30 39 -16 17 -30 35 -30 40 0 5 -16 26 -35 46 -19 20
-35 41 -35 45 0 9 -45 71 -74 102 -33 36 -96 124 -96 135 0 5 -4 10 -8 10 -5
0 -15 12 -23 28 -8 15 -16 29 -19 32 -3 3 -21 25 -40 50 -19 24 -45 55 -57 69
-13 13 -23 28 -23 33 0 5 -5 6 -11 3 -6 -4 -8 -13 -5 -21 3 -8 1 -14 -5 -14
-6 0 -9 14 -7 30 1 17 -2 34 -8 38 -6 4 -16 17 -23 30 -6 12 -18 22 -26 22 -8
0 -15 5 -15 10 0 6 5 10 10 10 6 0 3 11 -7 25 -17 23 -62 37 -48 15 9 -14 -18
-13 -33 2 -8 8 -10 5 -6 -15z m59 -17 c3 -5 1 -10 -4 -10 -6 0 -11 5 -11 10 0
6 2 10 4 10 3 0 8 -4 11 -10z m45 -81 c0 -5 -7 -9 -15 -9 -9 0 -15 9 -15 21 0
18 2 19 15 9 8 -7 15 -16 15 -21z m-4691 -2186 c1 -10 2 -28 2 -40 1 -13 4
-21 8 -19 3 2 19 -2 35 -9 l29 -12 -30 -5 c-25 -3 -34 2 -58 36 -23 32 -24 37
-7 22 12 -11 22 -14 22 -8 0 18 -32 44 -47 38 -8 -3 -11 -1 -8 4 11 17 51 11
54 -7z m99 -109 c-3 -27 -4 -26 -9 8 -3 22 -1 34 4 29 5 -5 7 -21 5 -37z m-38
-16 c0 -12 -1 -19 -3 -17 -1 2 -9 12 -16 22 -12 14 -11 17 3 17 10 0 16 -8 16
-22z m195 -241 c2 -18 1 -26 -2 -19 -2 6 -9 10 -14 7 -5 -4 -6 1 -3 9 4 9 0
18 -9 22 -13 5 -14 9 -4 25 10 16 13 16 20 3 5 -8 10 -29 12 -47z m80 -27 c-3
-5 -12 -10 -18 -10 -7 0 -6 4 3 10 19 12 23 12 15 0z m-18 -52 c-3 -8 -6 -5
-6 6 -1 11 2 17 5 13 3 -3 4 -12 1 -19z m3 -23 c4 0 11 -3 15 -7 4 -3 -1 -5
-11 -4 -10 2 -24 14 -32 27 -14 23 -13 23 2 4 9 -11 21 -20 26 -20z m151 -222
c-12 -20 -14 -14 -5 12 4 9 9 14 11 11 3 -2 0 -13 -6 -23z m168 -237 c-2 -2
-13 8 -23 22 l-19 27 24 -22 c12 -12 21 -24 18 -27z m61 -72 c0 -3 -7 -1 -15
6 -8 7 -15 17 -15 22 0 5 7 3 15 -6 8 -8 15 -18 15 -22z m31 -1 c-12 -20 -14
-14 -5 12 4 9 9 14 11 11 3 -2 0 -13 -6 -23z m12719 -239 c12 -19 20 -38 16
-41 -3 -4 -6 -1 -6 5 0 7 -11 12 -25 12 -14 0 -25 3 -25 8 0 12 12 52 15 52 2
0 13 -16 25 -36z m-12519 -71 c13 -16 12 -17 -3 -4 -17 13 -22 21 -14 21 2 0
10 -8 17 -17z m12567 -50 c14 -12 23 -26 19 -30 -5 -4 -12 -2 -16 5 -4 7 -15
10 -24 6 -14 -5 -17 0 -16 32 0 22 3 32 6 24 3 -8 17 -25 31 -37z m-12531 12
c0 -8 -4 -12 -9 -9 -5 3 -6 10 -3 15 9 13 12 11 12 -6z m12661 -250 c-3 -3 -9
2 -12 12 -6 14 -5 15 5 6 7 -7 10 -15 7 -18z m-4412 -1779 c0 -30 -2 -32 -18
-22 -27 17 -22 56 7 56 6 0 11 -15 11 -34z m67 -116 c3 -11 1 -18 -4 -14 -5 3
-9 12 -9 20 0 20 7 17 13 -6z m5255 -7505 c-3 -3 -9 2 -12 12 -6 14 -5 15 5 6
7 -7 10 -15 7 -18z"/>
<path d="M38770 33151 c0 -6 4 -13 10 -16 6 -3 7 1 4 9 -7 18 -14 21 -14 7z"/>
<path d="M37326 35051 c-3 -5 1 -11 9 -14 9 -4 12 -1 8 9 -6 16 -10 17 -17 5z"/>
<path d="M50209 34953 c-13 -16 -12 -17 4 -4 16 13 21 21 13 21 -2 0 -10 -8
-17 -17z"/>
<path d="M37450 34875 c13 -14 26 -25 28 -25 3 0 -5 11 -18 25 -13 14 -26 25
-28 25 -3 0 5 -11 18 -25z"/>
<path d="M37735 34600 c3 -5 8 -10 11 -10 2 0 4 5 4 10 0 6 -5 10 -11 10 -5 0
-7 -4 -4 -10z"/>
<path d="M37690 34555 c7 -9 15 -13 17 -11 7 7 -7 26 -19 26 -6 0 -6 -6 2 -15z"/>
<path d="M50509 34553 c-13 -16 -12 -17 4 -4 16 13 21 21 13 21 -2 0 -10 -8
-17 -17z"/>
<path d="M50545 34520 c10 -11 20 -20 23 -20 3 0 -3 9 -13 20 -10 11 -20 20
-23 20 -3 0 3 -9 13 -20z"/>
<path d="M37810 34440 c-6 -11 -8 -20 -6 -20 3 0 10 9 16 20 6 11 8 20 6 20
-3 0 -10 -9 -16 -20z"/>
<path d="M37885 34360 c-4 -6 -11 -7 -17 -4 -7 4 -8 2 -4 -4 10 -16 23 -15 30
3 6 17 0 20 -9 5z"/>
<path d="M37855 34330 c10 -11 20 -20 23 -20 3 0 -3 9 -13 20 -10 11 -20 20
-23 20 -3 0 3 -9 13 -20z"/>
<path d="M50649 34313 c-12 -16 -12 -17 2 -6 9 7 20 9 24 5 5 -4 5 -1 1 6 -9
16 -11 15 -27 -5z"/>
<path d="M37886 34278 c3 -5 10 -6 15 -3 13 9 11 12 -6 12 -8 0 -12 -4 -9 -9z"/>
<path d="M37967 34203 c5 -12 3 -14 -7 -8 -9 5 -11 4 -6 -4 6 -9 11 -9 22 0
17 14 17 16 0 22 -11 4 -13 1 -9 -10z"/>
<path d="M38002 34123 c6 -8 13 -11 16 -8 3 3 12 -5 20 -17 10 -18 12 -19 6
-3 -3 11 -7 25 -7 31 0 5 -11 10 -23 10 -18 0 -21 -3 -12 -13z"/>
<path d="M50837 34117 c-3 -7 3 -13 14 -13 13 0 15 3 7 13 -6 7 -12 13 -13 13
-2 0 -5 -6 -8 -13z"/>
<path d="M38062 34075 c-8 -18 -8 -26 0 -31 7 -4 8 -3 4 4 -4 7 -3 12 1 12 5
0 9 9 10 20 2 26 -1 25 -15 -5z"/>
<path d="M38124 34023 c-1 -13 1 -21 5 -16 3 4 10 10 14 14 4 3 2 11 -5 17
-10 8 -13 5 -14 -15z"/>
<path d="M38080 34023 c0 -5 9 -18 20 -28 11 -10 20 -16 20 -13 0 3 -9 15 -20
28 -11 13 -20 19 -20 13z"/>
<path d="M50890 34011 c0 -6 4 -13 10 -16 6 -3 7 1 4 9 -7 18 -14 21 -14 7z"/>
<path d="M50945 33990 c10 -11 20 -20 23 -20 3 0 -3 9 -13 20 -10 11 -20 20
-23 20 -3 0 3 -9 13 -20z"/>
<path d="M38140 33969 c0 -5 -5 -7 -12 -3 -7 4 -8 3 -4 -5 4 -6 11 -9 16 -6 4
3 10 -1 13 -7 3 -7 4 -3 4 10 -1 21 -17 33 -17 11z"/>
<path d="M38193 33884 c9 -11 14 -24 10 -28 -4 -4 1 -4 12 0 11 5 14 9 7 12
-7 2 -9 9 -5 15 3 7 3 9 -2 5 -4 -4 -15 -2 -24 4 -12 10 -12 7 2 -8z"/>
<path d="M50965 33880 c3 -5 8 -10 11 -10 2 0 4 5 4 10 0 6 -5 10 -11 10 -5 0
-7 -4 -4 -10z"/>
<path d="M38227 33837 c-2 -7 9 -28 27 -47 17 -19 28 -31 24 -26 -16 20 -7 28
12 11 15 -14 17 -21 9 -32 -9 -9 -9 -13 0 -13 6 0 11 -7 11 -16 0 -14 3 -14
16 -3 13 10 17 10 25 -2 8 -12 13 -51 10 -71 0 -5 7 -8 16 -8 13 0 14 3 5 12
-7 7 -12 27 -12 45 0 29 -4 34 -31 40 -17 3 -28 11 -26 17 3 6 -6 25 -19 41
-13 17 -24 24 -24 16 0 -11 -4 -10 -19 3 -11 10 -17 24 -14 32 3 8 3 14 0 14
-3 0 -7 -6 -10 -13z"/>
<path d="M38305 33809 c-4 -6 -5 -12 -2 -15 2 -3 7 2 10 11 7 17 1 20 -8 4z"/>
<path d="M38381 33694 c0 -11 3 -14 6 -6 3 7 2 16 -1 19 -3 4 -6 -2 -5 -13z"/>
<path d="M38385 33660 c3 -5 8 -10 11 -10 2 0 4 5 4 10 0 6 -5 10 -11 10 -5 0
-7 -4 -4 -10z"/>
<path d="M38418 33573 c6 -3 10 -8 7 -13 -3 -4 2 -10 10 -14 8 -3 17 0 21 6 5
7 2 8 -6 3 -9 -6 -12 -4 -8 6 4 10 -1 15 -16 16 -11 0 -15 -1 -8 -4z"/>
<path d="M51625 32790 c-4 -6 7 -10 27 -9 27 0 30 2 13 9 -27 12 -33 12 -40 0z"/>
<path d="M51685 32710 c3 -5 8 -10 11 -10 2 0 4 5 4 10 0 6 -5 10 -11 10 -5 0
-7 -4 -4 -10z"/>
<path d="M51763 32565 c-3 -9 -3 -18 -1 -21 3 -3 8 4 11 16 6 23 -1 27 -10 5z"/>
<path d="M47081 30923 c7 -12 15 -20 18 -17 3 2 -3 12 -13 22 -17 16 -18 16
-5 -5z"/>
<path d="M47110 30876 c0 -8 4 -17 9 -20 5 -4 7 3 4 14 -6 23 -13 26 -13 6z"/>
<path d="M47191 30828 c0 -9 -4 -25 -7 -35 -5 -17 -5 -17 6 0 6 10 9 25 7 35
-4 15 -5 15 -6 0z"/>
<path d="M47200 30765 c0 -17 2 -18 24 -9 23 9 20 24 -4 24 -11 0 -20 -7 -20
-15z"/>
<path d="M47267 30744 c-3 -3 -3 -13 0 -21 3 -8 1 -18 -6 -22 -9 -6 -9 -11 2
-19 11 -10 14 -5 15 28 2 40 0 45 -11 34z"/>
<path d="M47325 30611 c-3 -6 4 -25 16 -43 12 -18 18 -24 13 -13 -4 11 -8 30
-8 43 -1 23 -11 29 -21 13z"/>
<path d="M47388 30533 c7 -3 16 -2 19 1 4 3 -2 6 -13 5 -11 0 -14 -3 -6 -6z"/>
<path d="M47426 30494 c-4 -15 -2 -32 3 -37 8 -8 11 0 11 26 0 44 -5 47 -14
11z"/>
<path d="M47460 30448 c0 -7 5 -20 10 -28 8 -11 9 -9 8 13 -2 26 -18 40 -18
15z"/>
<path d="M47498 30396 c-5 -22 21 -66 39 -66 5 0 15 -16 22 -35 7 -19 16 -35
20 -35 4 0 5 16 3 35 -3 21 -10 35 -18 35 -8 0 -14 7 -14 15 0 8 -7 15 -15 15
-9 0 -15 9 -15 24 0 33 -17 42 -22 12z"/>
</g>
</svg>
