<?xml version="1.0" encoding="utf-8"?><svg version="1.1" id="Layer_1" xmlns="http://www.w3.org/2000/svg" xmlns:xlink="http://www.w3.org/1999/xlink" x="0px" y="0px" viewBox="0 0 122.88 121.2" style="enable-background:new 0 0 122.88 121.2" xml:space="preserve"><g><path d="M26.92,72.9c-1.49,0-2.84,0.6-3.81,1.58c-0.97,0.97-1.58,2.32-1.58,3.81s0.6,2.84,1.58,3.81c0.97,0.97,2.32,1.58,3.81,1.58 c1.49,0,2.84-0.6,3.81-1.58c0.97-0.97,1.58-2.32,1.58-3.81s-0.6-2.84-1.58-3.81C29.76,73.5,28.41,72.9,26.92,72.9L26.92,72.9z M11.27,0h40.75v26.42h-4.5c-0.52-1.61-1.42-3.06-2.59-4.23c-1.91-1.91-4.55-3.09-7.46-3.09c-2.91,0-5.55,1.18-7.46,3.09 c-1.91,1.91-3.09,4.55-3.09,7.46c0,2.91,1.18,5.55,3.09,7.46c1.91,1.91,4.55,3.09,7.46,3.09c2.91,0,5.55-1.18,7.46-3.09 c1.31-1.31,2.28-2.96,2.76-4.82h7.28c1.63,0,2.94-1.32,2.94-2.94V0h20.9v16.04c-1.73,0.5-3.28,1.43-4.52,2.68 c-1.91,1.91-3.09,4.55-3.09,7.46c0,2.91,1.18,5.55,3.09,7.46c1.91,1.91,4.55,3.09,7.46,3.09c2.91,0,5.55-1.18,7.46-3.09 c1.91-1.91,3.09-4.55,3.09-7.46c0-2.91-1.18-5.55-3.09-7.46c-1.24-1.24-2.79-2.17-4.52-2.68V0h26.91c3.1,0,5.92,1.27,7.96,3.31 c2.04,2.04,3.31,4.86,3.31,7.96v98.66c0,3.14-1.6,5.94-3.94,7.96l-0.2,0.16c-2.35,1.94-5.47,3.15-8.43,3.15H86.28V79.31l8.45-8.67 c1.55,0.89,3.34,1.4,5.25,1.4c2.91,0,5.55-1.18,7.46-3.09c1.91-1.91,3.09-4.55,3.09-7.46c0-2.91-1.18-5.55-3.09-7.46 c-1.91-1.91-4.55-3.09-7.46-3.09c-2.91,0-5.55,1.18-7.46,3.09c-1.91,1.91-3.09,4.55-3.09,7.46c0,1.78,0.44,3.46,1.22,4.94 l-9.26,9.51c-0.61,0.54-0.99,1.33-0.99,2.2v43.07H64.17V72.93c1.73-0.5,3.28-1.43,4.52-2.68c1.91-1.91,3.09-4.55,3.09-7.46 s-1.18-5.55-3.09-7.46c-1.91-1.91-4.55-3.09-7.46-3.09c-2.91,0-5.55,1.18-7.46,3.09c-1.91,1.91-3.09,4.55-3.09,7.46 s1.18,5.55,3.09,7.46c1.24,1.24,2.79,2.17,4.52,2.68v48.27H42.14V90.34c0-0.91-0.41-1.71-1.05-2.25l-4.89-4.77 c0.81-1.5,1.28-3.21,1.28-5.03c0-2.91-1.18-5.55-3.09-7.46c-1.91-1.91-4.55-3.09-7.46-3.09s-5.55,1.18-7.46,3.09 c-1.91,1.91-3.09,4.55-3.09,7.46c0,2.91,1.18,5.55,3.09,7.46c1.91,1.91,4.55,3.09,7.46,3.09c1.87,0,3.63-0.49,5.16-1.34l4.18,4.07 v29.62H11.27c-3.09,0-5.91-1.27-7.95-3.31l-0.01-0.01C1.27,115.83,0,113.02,0,109.93V11.27c0-3.09,1.27-5.91,3.31-7.95l0.01-0.01 L3.31,3.31C5.35,1.27,8.17,0,11.27,0L11.27,0z M85.57,22.37c-0.97-0.97-2.32-1.58-3.81-1.58s-2.84,0.6-3.81,1.58 s-1.58,2.32-1.58,3.81s0.6,2.84,1.58,3.81c0.97,0.97,2.32,1.58,3.81,1.58s2.84-0.6,3.81-1.58c0.97-0.97,1.58-2.32,1.58-3.81 S86.54,23.35,85.57,22.37L85.57,22.37z M41.28,25.85c-0.97-0.97-2.32-1.58-3.81-1.58c-1.49,0-2.84,0.6-3.81,1.58 c-0.97,0.97-1.58,2.32-1.58,3.81c0,1.49,0.6,2.84,1.58,3.81c0.97,0.97,2.32,1.58,3.81,1.58c1.49,0,2.84-0.6,3.81-1.58 c0.97-0.97,1.58-2.32,1.58-3.81C42.86,28.17,42.26,26.82,41.28,25.85L41.28,25.85z M103.79,57.67c-0.97-0.97-2.32-1.58-3.81-1.58 c-1.49,0-2.84,0.6-3.81,1.58c-0.97,0.97-1.58,2.32-1.58,3.81c0,1.49,0.6,2.84,1.58,3.81c0.97,0.97,2.32,1.58,3.81,1.58 c1.49,0,2.84-0.6,3.81-1.58c0.97-0.97,1.58-2.32,1.58-3.81C105.37,59.99,104.76,58.64,103.79,57.67L103.79,57.67z M65.03,58.97 c-0.97-0.97-2.32-1.58-3.81-1.58c-1.49,0-2.84,0.6-3.81,1.58c-0.97,0.97-1.58,2.32-1.58,3.81s0.6,2.84,1.58,3.81 c0.97,0.97,2.32,1.58,3.81,1.58c1.49,0,2.84-0.6,3.81-1.58c0.97-0.97,1.58-2.32,1.58-3.81S66.01,59.95,65.03,58.97L65.03,58.97z"/></g></svg>